  0
SECTION
  2
HEADER
  9
$ACADVER
  1
AC1009
  9
$INSBASE
 10
0.0
 20
0.0
 30
0.0
  9
$EXTMIN
 10
0.0
 20
0.0
 30
0.0
  9
$EXTMAX
 10
0.0
 20
0.0
 30
0.0
  0
ENDSEC
  0
SECTION
  2
TABLES
  0
TABLE
  2
VPORT
 70
0
  0
ENDTAB
  0
TABLE
  2
LTYPE
 70
1
  0
LTYPE
  2
CONTINUOUS
 70
0
  3
Solid line
 72
65
 73
0
 40
0.0
  0
ENDTAB
  0
TABLE
  2
LAYER
 70
1
  0
LAYER
  2
0
 70
64
 62
7
  6
continuous
  0
ENDTAB
  0
TABLE
  2
STYLE
 70
1
  0
STYLE
  2
STANDARD
 70
0
 40
0
 41
1.0
 50
0.0
 71
0
 42
1
 3
ARIAL.TTF
 4

  0
ENDTAB
  0
TABLE
  2
VIEW
 70
0
  0
ENDTAB
  0
ENDSEC
  0
SECTION
  2
BLOCKS
  0
BLOCK
  8
mainboard
  2
PAD001
 70
0
 10
0.0
 20
0.0
 30
0.0
  3
PAD001
  0
LINE
  8
mainboard
 62
0
 10
-50.0
 20
-32.4999881063
 30
0.0
 11
-50.0
 21
32.5
 31
0.0
  0
ARC
  8
mainboard
 62
0
 10
-47.5
 20
32.5
 30
0.0
 40
2.5
 50
90.0
 51
-180.0
  0
LINE
  8
mainboard
 62
0
 10
-47.5
 20
35.0
 30
0.0
 11
-39.05
 21
35.0
 31
0.0
  0
LINE
  8
mainboard
 62
0
 10
-39.05
 20
35.0
 30
0.0
 11
-39.05
 21
30.86
 31
0.0
  0
ARC
  8
mainboard
 62
0
 10
-36.0
 20
30.86
 30
0.0
 40
3.05
 50
-180.0
 51
0.0
  0
LINE
  8
mainboard
 62
0
 10
-32.95
 20
30.86
 30
0.0
 11
-32.95
 21
35.0
 31
0.0
  0
LINE
  8
mainboard
 62
0
 10
-32.95
 20
35.0
 30
0.0
 11
37.55
 21
35.0
 31
0.0
  0
LINE
  8
mainboard
 62
0
 10
37.55
 20
35.0
 30
0.0
 11
37.55
 21
30.86
 31
0.0
  0
ARC
  8
mainboard
 62
0
 10
40.6
 20
30.86
 30
0.0
 40
3.05
 50
-180.0
 51
0.0
  0
LINE
  8
mainboard
 62
0
 10
43.65
 20
30.86
 30
0.0
 11
43.65
 21
35.0
 31
0.0
  0
LINE
  8
mainboard
 62
0
 10
43.65
 20
35.0
 30
0.0
 11
47.5
 21
35.0
 31
0.0
  0
ARC
  8
mainboard
 62
0
 10
47.5
 20
32.5
 30
0.0
 40
2.5
 50
-0.0
 51
90.0
  0
LINE
  8
mainboard
 62
0
 10
50.0
 20
32.5
 30
0.0
 11
50.0
 21
-32.5
 31
0.0
  0
ARC
  8
mainboard
 62
0
 10
47.5
 20
-32.5
 30
0.0
 40
2.5
 50
-90.0
 51
0.0
  0
LINE
  8
mainboard
 62
0
 10
47.5
 20
-35.0
 30
0.0
 11
43.65
 21
-35.0
 31
0.0
  0
LINE
  8
mainboard
 62
0
 10
43.65
 20
-35.0
 30
0.0
 11
43.65
 21
-30.86
 31
0.0
  0
ARC
  8
mainboard
 62
0
 10
40.6
 20
-30.86
 30
0.0
 40
3.05
 50
-0.0
 51
-180.0
  0
LINE
  8
mainboard
 62
0
 10
37.55
 20
-30.86
 30
0.0
 11
37.55
 21
-35.0
 31
0.0
  0
LINE
  8
mainboard
 62
0
 10
37.55
 20
-35.0
 30
0.0
 11
-32.95
 21
-35.0
 31
0.0
  0
LINE
  8
mainboard
 62
0
 10
-32.95
 20
-35.0
 30
0.0
 11
-32.95
 21
-30.86
 31
0.0
  0
ARC
  8
mainboard
 62
0
 10
-36.0
 20
-30.86
 30
0.0
 40
3.05
 50
-0.0
 51
-180.0
  0
LINE
  8
mainboard
 62
0
 10
-39.05
 20
-30.86
 30
0.0
 11
-39.05
 21
-35.0
 31
0.0
  0
LINE
  8
mainboard
 62
0
 10
-39.05
 20
-35.0
 30
0.0
 11
-47.5
 21
-35.0
 31
0.0
  0
ARC
  8
mainboard
 62
0
 10
-47.5
 20
-32.5
 30
0.0
 40
2.5
 50
179.999727416
 51
-90.0
  0
CIRCLE
  8
mainboard
 62
0
 10
-47.0
 20
10.5
 30
0.0
 40
1.5
  0
CIRCLE
  8
mainboard
 62
0
 10
47.0
 20
32.0
 30
0.0
 40
1.5
  0
CIRCLE
  8
mainboard
 62
0
 10
-47.0
 20
-10.5
 30
0.0
 40
1.5
  0
CIRCLE
  8
mainboard
 62
0
 10
47.0
 20
-32.0
 30
0.0
 40
1.5
  0
CIRCLE
  8
mainboard
 62
0
 10
47.0
 20
-10.5
 30
0.0
 40
1.5
  0
CIRCLE
  8
mainboard
 62
0
 10
-47.0
 20
32.0
 30
0.0
 40
1.5
  0
CIRCLE
  8
mainboard
 62
0
 10
-47.0
 20
-32.0
 30
0.0
 40
1.5
  0
CIRCLE
  8
mainboard
 62
0
 10
0.0
 20
0.0
 30
0.0
 40
1.5
  0
CIRCLE
  8
mainboard
 62
0
 10
0.0
 20
32.0
 30
0.0
 40
1.5
  0
CIRCLE
  8
mainboard
 62
0
 10
0.0
 20
-32.0
 30
0.0
 40
1.5
  0
ENDBLK
  0
ENDSEC
  0
SECTION
  2
ENTITIES
  0
INSERT
  2
PAD001
  8
0
 10
0.0
 20
0.0
 30
0.0
  0
ENDSEC
  0
EOF
